#!OML:ASF E:\motion texture\Top Level 1\Subject 1\Session 1\male.ASF
:FULLY-SPECIFIED
:DEGREES
166
root 33.1601 17.3813 6.08478 16.915 -85.0366 -7.04249
lowerback 0.281986 -0.0190932 -0.509205
upperback 0.820575 -0.0269608 -1.37497
thorax 0.681179 -0.0160442 -1.12199
lowerneck -18.936 -1.88161 -5.52082
upperneck 3.5044 -2.18365 9.23784
head 4.25433 -0.645829 3.59078
rclavicle -5.76476e-015 -3.33958e-014
rhumerus -16.7556 12.6541 -93.42
rradius 46.1069
rwrist 11.1488
rhand -19.8509 -25.9854
rfingers 7.12502
rthumb 6.48378 -55.8661
lclavicle -5.76476e-015 -3.33958e-014
lhumerus -12.6997 -5.26961 90.149
lradius 41.4821
lwrist -15.686
lhand -16.0718 28.9247
lfingers 7.12502
lthumb 10.1309 58.6608
rfemur -38.7322 -4.32977 14.5046
rtibia 32.342
rfoot -3.98813 -13.5859
rtoes 1.86887
lfemur -7.26834 -8.22088 -20.0672
ltibia 19.0935
lfoot -17.5778 6.87074
ltoes -5.7336
167
root 32.9991 17.3654 6.07456 17.4101 -84.8873 -7.56072
lowerback 0.333979 -0.0520108 -0.522193
upperback 0.831447 -0.0715108 -1.36737
thorax 0.662477 -0.038456 -1.107
lowerneck -18.873 -1.87801 -5.51683
upperneck 3.24646 -2.17591 9.2928
head 4.16544 -0.646212 3.60675
rclavicle -1.18277e-014 1.39149e-014
rhumerus -16.1185 13.7954 -93.4768
rradius 46.9495
rwrist 11.2289
rhand -20.2247 -25.9596
rfingers 7.12502
rthumb 6.12288 -55.8512
lclavicle -1.18277e-014 1.39149e-014
lhumerus -11.8576 -6.4457 90.3489
lradius 42.2458
lwrist -14.9742
lhand -15.9985 29.2185
lfingers 7.12502
lthumb 10.2016 58.9512
rfemur -38.8761 -4.10271 14.3684
rtibia 31.2926
rfoot -3.8175 -13.2305
rtoes 1.36513
lfemur -6.79793 -8.25326 -19.9553
ltibia 19.3424
lfoot -17.8681 6.78881
ltoes -6.47408
168
root 32.8365 17.3497 6.06277 18.0118 -84.7318 -8.19029
lowerback 0.38884 -0.0842632 -0.530346
upperback 0.841485 -0.115225 -1.35933
thorax 0.641353 -0.0604158 -1.09421
lowerneck -18.8058 -1.87615 -5.51745
upperneck 2.99056 -2.17004 9.35386
head 4.07699 -0.647433 3.62527
rclavicle 7.05686e-015 1.03368e-014
rhumerus -15.4298 14.9369 -93.5029
rradius 47.7963
rwrist 11.3387
rhand -20.6176 -25.9357
rfingers 7.12502
rthumb 5.74351 -55.8379
lclavicle 7.05686e-015 1.03368e-014
lhumerus -10.9844 -7.61432 90.5178
lradius 43.0142
lwrist -14.2617
lhand -15.9187 29.5246
lfingers 7.12502
lthumb 10.2786 59.2535
rfemur -38.991 -3.8576 14.2532
rtibia 30.3344
rfoot -3.63805 -12.885
rtoes 0.929928
lfemur -6.361 -8.2788 -19.8129
ltibia 19.6557
lfoot -18.129 6.67898
ltoes -7.27699
169
root 32.6724 17.3344 6.04941 18.726 -84.5677 -8.93674
lowerback 0.444844 -0.115854 -0.531766
upperback 0.849994 -0.158072 -1.35019
thorax 0.618046 -0.081892 -1.084
lowerneck -18.7315 -1.87631 -5.52282
upperneck 2.73633 -2.16634 9.42019
head 3.98841 -0.649752 3.64607
rclavicle 7.85199e-015 -8.74653e-015
rhumerus -14.6878 16.073 -93.4943
rradius 48.6453
rwrist 11.4802
rhand -21.0189 -25.9113
rfingers 7.12502
rthumb 5.35605 -55.8236
lclavicle 7.85199e-015 -8.74653e-015
lhumerus -10.0793 -8.77459 90.6555
lradius 43.785
lwrist -13.55
lhand -15.8348 29.8362
lfingers 7.12502
lthumb 10.3595 59.561
rfemur -39.0778 -3.59594 14.1634
rtibia 29.4698
rfoot -3.4587 -12.5526
rtoes 0.543585
lfemur -5.96285 -8.29849 -19.6367
ltibia 20.0372
lfoot -18.3528 6.53934
ltoes -8.13976
170
root 32.5067 17.3198 6.03448 19.5473 -84.3942 -9.79527
lowerback 0.503979 -0.147454 -0.524167
upperback 0.857915 -0.200952 -1.34047
thorax 0.592371 -0.103323 -1.07817
lowerneck -18.6576 -1.8788 -5.53256
upperneck 2.48696 -2.16531 9.49256
head 3.90191 -0.653162 3.66933
rclavicle 7.15625e-015 7.95139e-016
rhumerus -13.8883 17.2038 -93.4495
rradius 49.496
rwrist 11.6426
rhand -21.4384 -25.8969
rfingers 7.12502
rthumb 4.95103 -55.8191
lclavicle 7.15625e-015 7.95139e-016
lhumerus -9.13815 -9.92296 90.7586
lradius 44.5568
lwrist -12.84
lhand -15.7456 30.1595
lfingers 7.12502
lthumb 10.4456 59.88
rfemur -39.1356 -3.31819 14.1019
rtibia 28.6992
rfoot -3.28159 -12.2321
rtoes 0.211494
lfemur -5.60667 -8.31452 -19.4256
ltibia 20.49
lfoot -18.5313 6.37237
ltoes -9.06791
171
root 32.3394 17.3058 6.01799 20.4748 -84.2112 -10.7641
lowerback 0.565126 -0.178667 -0.506955
upperback 0.864328 -0.2433 -1.32953
thorax 0.564003 -0.124425 -1.0764
lowerneck -18.5823 -1.88397 -5.54854
upperneck 2.24367 -2.16709 9.57146
head 3.81762 -0.657723 3.69548
rclavicle 2.18663e-015 1.66979e-014
rhumerus -13.0293 18.3261 -93.3642
rradius 50.3473
rwrist 11.8238
rhand -21.871 -25.8934
rfingers 7.12502
rthumb 4.53335 -55.8249
lclavicle 2.18663e-015 1.66979e-014
lhumerus -8.16098 -11.0568 90.8269
lradius 45.328
lwrist -12.1343
lhand -15.6499 30.4801
lfingers 7.12502
lthumb 10.5379 60.1959
rfemur -39.1671 -3.02457 14.0724
rtibia 28.0251
rfoot -3.11067 -11.9234
rtoes -0.0594464
lfemur -5.29815 -8.32849 -19.1782
ltibia 21.017
lfoot -18.6568 6.1757
ltoes -10.0416
172
root 32.1707 17.2927 6.00005 21.4838 -84.0179 -11.8188
lowerback 0.628575 -0.208783 -0.480457
upperback 0.869053 -0.284159 -1.31768
thorax 0.532594 -0.144723 -1.07883
lowerneck -18.5043 -1.89271 -5.56885
upperneck 2.00627 -2.17309 9.65439
head 3.73532 -0.664265 3.72331
rclavicle 4.96962e-016 7.95139e-015
rhumerus -12.1098 19.4343 -93.2343
rradius 51.1986
rwrist 12.0201
rhand -22.3121 -25.8953
rfingers 7.12502
rthumb 4.10735 -55.8355
lclavicle 4.96962e-016 7.95139e-015
lhumerus -7.14675 -12.1768 90.8607
lradius 46.0969
lwrist -11.4323
lhand -15.5502 30.8023
lfingers 7.12502
lthumb 10.6341 60.5132
rfemur -39.173 -2.71965 14.0765
rtibia 27.4482
rfoot -2.9484 -11.6225
rtoes -0.26282
lfemur -5.03972 -8.34093 -18.896
ltibia 21.6194
lfoot -18.7232 5.94615
ltoes -11.0471
173
root 32.0006 17.2806 5.98074 22.5774 -83.8141 -12.9632
lowerback 0.694867 -0.237891 -0.441546
upperback 0.872722 -0.323609 -1.3049
thorax 0.498451 -0.164245 -1.08717
lowerneck -18.4246 -1.90454 -5.59534
upperneck 1.77381 -2.18238 9.74339
head 3.65485 -0.672245 3.75384
rclavicle 2.08724e-015 -2.38542e-015
rhumerus -11.1264 20.5257 -93.0564
rradius 52.048
rwrist 12.2278
rhand -22.7602 -25.9037
rfingers 7.12502
rthumb 3.67463 -55.8517
lclavicle 2.08724e-015 -2.38542e-015
lhumerus -6.09354 -13.2806 90.858
lradius 46.8625
lwrist -10.7339
lhand -15.4454 31.1297
lfingers 7.12502
lthumb 10.7351 60.8354
rfemur -39.1529 -2.40653 14.1194
rtibia 26.9677
rfoot -2.79621 -11.3257
rtoes -0.393423
lfemur -4.83414 -8.35121 -18.578
ltibia 22.2985
lfoot -18.7213 5.68727
ltoes -12.0752
174
root 31.829 17.2696 5.96016 23.7398 -83.5995 -14.1819
lowerback 0.764828 -0.265565 -0.389942
upperback 0.874773 -0.361065 -1.29124
thorax 0.460525 -0.182705 -1.10164
lowerneck -18.3418 -1.91954 -5.62738
upperneck 1.54654 -2.19512 9.83764
head 3.57608 -0.681802 3.7867
rclavicle 4.96962e-015 3.18055e-015
rhumerus -10.0785 21.5955 -92.8271
rradius 52.8948
rwrist 12.4465
rhand -23.2131 -25.9226
rfingers 7.12502
rthumb 3.23734 -55.8778
lclavicle 4.96962e-015 3.18055e-015
lhumerus -5.00172 -14.3676 90.8186
lradius 47.6232
lwrist -10.0377
lhand -15.3406 31.4591
lfingers 7.12502
lthumb 10.8362 61.1596
rfemur -39.1075 -2.08952 14.2039
rtibia 26.583
rfoot -2.65721 -11.0294
rtoes -0.449628
lfemur -4.68373 -8.35866 -18.2253
ltibia 23.0535
lfoot -18.6445 5.40063
ltoes -13.1039
